HIERARCHY
ROOT Hips
{
	OFFSET -0.001795 -0.223333 0.028219
	CHANNELS 6 Xposition Yposition Zposition Zrotation Yrotation Xrotation
	JOINT LeftUpLeg
	{
		OFFSET 0.069520 -0.091406 -0.006815
		CHANNELS 3 Zrotation Yrotation Xrotation
		JOINT LeftLeg
		{
			OFFSET 0.034277 -0.375199 -0.004496
			CHANNELS 3 Zrotation Yrotation Xrotation
			JOINT LeftFoot
			{
				OFFSET -0.013596 -0.397961 -0.043693
				CHANNELS 3 Zrotation Yrotation Xrotation
				JOINT LeftToe
				{
					OFFSET 0.026358 -0.055791 0.119288
					CHANNELS 3 Zrotation Yrotation Xrotation
					End Site
					{
						OFFSET 0.000000 0.000000 0.000000
					}
				}
			}
		}
	}
	JOINT RightUpLeg
	{
		OFFSET -0.067670 -0.090522 -0.004320
		CHANNELS 3 Zrotation Yrotation Xrotation
		JOINT RightLeg
		{
			OFFSET -0.038290 -0.382569 -0.008850
			CHANNELS 3 Zrotation Yrotation Xrotation
			JOINT RightFoot
			{
				OFFSET 0.015774 -0.398415 -0.042312
				CHANNELS 3 Zrotation Yrotation Xrotation
				JOINT RightToe
				{
					OFFSET -0.025372 -0.048144 0.123348
					CHANNELS 3 Zrotation Yrotation Xrotation
					End Site
					{
						OFFSET 0.000000 0.000000 0.000000
					}
				}
			}
		}
	}
	JOINT Spine
	{
		OFFSET -0.002533 0.108963 -0.026696
		CHANNELS 3 Zrotation Yrotation Xrotation
		JOINT Spine1
		{
			OFFSET 0.005487 0.135180 0.001092
			CHANNELS 3 Zrotation Yrotation Xrotation
			JOINT Spine2
			{
				OFFSET 0.001457 0.052922 0.025425
				CHANNELS 3 Zrotation Yrotation Xrotation
				JOINT Neck
				{
					OFFSET -0.002778 0.213870 -0.042857
					CHANNELS 3 Zrotation Yrotation Xrotation
					JOINT Head
					{
						OFFSET 0.005152 0.064970 0.051349
						CHANNELS 3 Zrotation Yrotation Xrotation
						End Site
						{
							OFFSET 0.000000 0.000000 0.000000
						}
					}
				}
				JOINT LeftShoulder
				{
					OFFSET 0.078845 0.121749 -0.034090
					CHANNELS 3 Zrotation Yrotation Xrotation
					JOINT LeftArm
					{
						OFFSET 0.090977 0.030469 -0.008868
						CHANNELS 3 Zrotation Yrotation Xrotation
						JOINT LeftForeArm
						{
							OFFSET 0.259612 -0.012772 -0.027456
							CHANNELS 3 Zrotation Yrotation Xrotation
							JOINT LeftHand
							{
								OFFSET 0.249234 0.008986 -0.001171
								CHANNELS 3 Zrotation Yrotation Xrotation
								End Site
								{
									OFFSET 0.000000 0.000000 0.000000
								}
							}
						}
					}
				}
				JOINT RightShoulder
				{
					OFFSET -0.081759 0.118833 -0.038615
					CHANNELS 3 Zrotation Yrotation Xrotation
					JOINT RightArm
					{
						OFFSET -0.096012 0.032551 -0.009143
						CHANNELS 3 Zrotation Yrotation Xrotation
						JOINT RightForeArm
						{
							OFFSET -0.253742 -0.013329 -0.021401
							CHANNELS 3 Zrotation Yrotation Xrotation
							JOINT RightHand
							{
								OFFSET -0.255298 0.007772 -0.005559
								CHANNELS 3 Zrotation Yrotation Xrotation
								End Site
								{
									OFFSET 0.000000 0.000000 0.000000
								}
							}
						}
					}
				}
			}
		}
	}
}
MOTION
Frames: 8
Frame Time: 0.050000
-0.066834 0.272885 0.752032 40.753838 -11.937454 -76.931533 11.155361 7.221107 -33.944747 24.635224 -6.644252 50.324713 -31.335687 -3.734309 61.490822 0.000000 0.000000 0.000000 -25.602775 3.862468 -48.629820 59.526747 -27.559452 75.186281 7.251473 -56.854804 -72.340867 0.000000 0.000000 0.000000 58.622379 22.967143 -0.668675 -19.894386 13.220063 3.931944 -33.017953 -29.781018 36.977063 -2.674942 -0.103116 -2.162174 0.000000 0.000000 0.000000 -23.620574 -13.546963 20.088180 -47.374660 17.725918 -16.220935 -132.322308 -71.004419 129.268229 0.000000 0.000000 0.000000 -11.868034 9.431341 5.261833 85.271166 7.954333 -19.375775 22.642039 84.880850 9.087505 0.000000 0.000000 0.000000
-0.064363 0.278028 0.762291 36.658624 -12.369460 -77.508145 11.404673 6.444665 -31.934178 34.585095 -13.666112 60.479228 -52.693641 -23.801097 52.305839 0.000000 0.000000 0.000000 -25.931077 2.572478 -46.176483 62.740728 -32.305331 76.203570 6.437694 -52.993619 -73.430898 0.000000 0.000000 0.000000 56.847090 25.346130 -5.287625 -17.240749 13.433668 11.705577 -31.320078 -37.037181 34.995576 0.454069 -0.838260 3.084914 0.000000 0.000000 0.000000 -33.808521 -14.398500 28.985251 -43.772328 14.918091 -15.774636 -135.159108 -66.102460 122.849791 0.000000 0.000000 0.000000 -11.848941 6.741211 4.688296 80.031117 6.435604 -18.935994 89.559305 78.815259 62.168939 0.000000 0.000000 0.000000
-0.062435 0.281338 0.775598 32.302859 -13.297566 -77.211261 13.090392 6.862787 -30.829324 41.461652 -21.544518 67.448585 -58.224335 -51.649292 33.979273 0.000000 0.000000 0.000000 -24.247619 2.102763 -44.619795 63.916456 -34.976272 76.484293 7.232344 -53.417987 -75.616896 0.000000 0.000000 0.000000 55.299425 26.173564 -7.762149 -14.914877 14.142430 19.315788 -27.896242 -44.246754 27.082336 5.944925 0.606288 16.716058 0.000000 0.000000 0.000000 -43.260346 -15.569541 37.270675 -37.864906 9.587055 -13.138494 -141.265901 -66.828620 124.752608 0.000000 0.000000 0.000000 -3.719657 7.291629 1.221725 66.420150 -1.863296 -14.246942 152.695749 69.183541 114.251427 0.000000 0.000000 0.000000
-0.061454 0.281175 0.792453 28.023646 -12.406865 -78.415620 14.105193 6.931617 -30.341951 47.937372 -30.627775 70.583329 -34.518772 -65.667429 0.646429 0.000000 0.000000 0.000000 -24.867906 0.591405 -41.702327 61.640464 -37.601142 80.805011 5.050857 -46.194367 -78.772828 0.000000 0.000000 0.000000 49.910595 25.825988 -12.277300 -10.899859 12.700113 27.757243 -23.525830 -48.410000 21.875473 9.000150 0.638259 22.953545 0.000000 0.000000 0.000000 -49.953287 -14.231705 42.209601 -31.330145 3.047404 -10.202105 -141.438109 -68.424889 123.146879 0.000000 0.000000 0.000000 -2.150065 7.609442 0.657998 59.090781 1.744832 -8.958167 173.345894 50.368471 133.271541 0.000000 0.000000 0.000000
-0.060760 0.274954 0.811475 25.206014 -12.779073 -79.490076 16.740472 9.187609 -33.992586 54.399831 -38.848308 70.985531 -8.207407 -70.436323 -30.781011 0.000000 0.000000 0.000000 -25.476340 0.360358 -43.967417 57.765860 -39.115136 86.050660 3.408401 -42.970956 -77.472221 0.000000 0.000000 0.000000 45.888052 23.984091 -13.360880 -6.673680 9.364877 30.611271 -22.090363 -46.897714 17.572330 11.901951 -2.441484 22.560023 0.000000 0.000000 0.000000 -47.279130 -16.167261 40.801100 -33.422608 -1.134566 -9.374019 -136.320839 -69.889274 122.539811 0.000000 0.000000 0.000000 -1.677032 7.743596 0.734365 55.574913 10.045229 -4.167403 179.682671 42.464799 150.978677 0.000000 0.000000 0.000000
-0.058819 0.264073 0.829561 21.547716 -13.531336 -81.835319 16.223172 10.445646 -40.486990 61.215494 -43.525688 66.402917 -2.610991 -72.045595 -36.698130 0.000000 0.000000 0.000000 -25.852425 -0.007319 -45.747872 53.910207 -38.880168 90.474305 1.278702 -39.358090 -73.092312 0.000000 0.000000 0.000000 43.937026 21.631447 -11.125123 -2.538750 5.178958 32.473422 -20.419294 -44.581014 11.589359 16.162606 -6.335054 23.180803 0.000000 0.000000 0.000000 -49.394539 -17.374418 41.307322 -28.225622 -5.176175 -6.979062 -136.628572 -71.109415 123.150472 0.000000 0.000000 0.000000 -1.232284 9.333218 1.342237 55.054327 23.196583 1.488318 -167.262584 48.760074 -175.190570 0.000000 0.000000 0.000000
-0.054245 0.244904 0.844981 19.352661 -14.676491 -82.816554 15.222315 13.511065 -53.297761 54.920428 -44.936235 71.281980 6.047751 -64.640415 -45.362919 0.000000 0.000000 0.000000 -24.978007 0.604171 -48.654192 53.255049 -39.830761 91.364029 2.145993 -40.686364 -77.098477 0.000000 0.000000 0.000000 42.939566 19.994733 -9.540395 2.320187 -0.694956 29.118151 -29.495963 -35.171104 16.676031 18.281836 -11.972460 25.295109 0.000000 0.000000 0.000000 -45.779534 -20.886828 36.807727 -29.397328 -8.463024 -5.721677 -117.747780 -70.536662 103.765111 0.000000 0.000000 0.000000 4.581164 14.220463 0.850556 48.251594 31.658337 6.030691 -129.912979 60.127071 -116.214904 0.000000 0.000000 0.000000
-0.048726 0.230440 0.856919 17.231379 -14.392572 -82.979478 11.285093 13.700460 -67.092552 41.660497 -42.625041 81.142603 9.942819 -53.215944 -49.277565 0.000000 0.000000 0.000000 -31.080956 -1.445610 -53.563191 56.597205 -43.900596 88.511728 3.416553 -47.761433 -72.619402 0.000000 0.000000 0.000000 45.367063 17.291223 -2.952804 -0.093049 0.259053 23.035391 -31.258746 -30.861106 21.254745 21.267896 -16.824460 28.057608 0.000000 0.000000 0.000000 -42.247603 -24.600241 35.153168 -30.396431 -13.571433 -4.259472 -104.982192 -77.926373 98.294847 0.000000 0.000000 0.000000 10.635893 20.294347 1.517417 36.879978 35.298951 6.156002 -78.598126 57.917663 -56.284620 0.000000 0.000000 0.000000
